<?xml version="1.0" encoding="iso-8859-1"?>
<!-- Generator: Adobe Illustrator 19.0.0, SVG Export Plug-In . SVG Version: 6.00 Build 0)  -->
<svg version="1.1" id="Capa_1" xmlns="http://www.w3.org/2000/svg" xmlns:xlink="http://www.w3.org/1999/xlink" x="0px" y="0px"
	 viewBox="0 0 511.968 511.968" style="enable-background:new 0 0 511.968 511.968;" xml:space="preserve">
<polygon style="fill:#FFD83B;" points="0,58.928 85.328,9.664 170.64,58.928 170.64,157.456 85.328,206.704 0,157.456 "/>
<polygon style="fill:#F3C432;" points="341.328,58.928 426.64,9.664 511.968,58.928 511.968,157.456 426.64,206.704 
	341.328,157.456 "/>
<g>
	<polygon style="fill:#E8AF2A;" points="170.672,58.928 256,9.664 341.328,58.928 341.328,157.456 256,206.704 170.672,157.456 	"/>
	<polygon style="fill:#E8AF2A;" points="170.672,354.512 256,305.264 341.328,354.512 341.328,453.04 256,502.304 170.672,453.04 	
		"/>
</g>
<polygon style="fill:#F3C432;" points="85.36,206.656 170.672,157.392 256,206.656 256,305.184 170.672,354.448 85.36,305.184 "/>
<polygon style="fill:#FFD83B;" points="256,206.656 341.328,157.392 426.64,206.656 426.64,305.184 341.328,354.448 256,305.184 "/>
<g>
</g>
<g>
</g>
<g>
</g>
<g>
</g>
<g>
</g>
<g>
</g>
<g>
</g>
<g>
</g>
<g>
</g>
<g>
</g>
<g>
</g>
<g>
</g>
<g>
</g>
<g>
</g>
<g>
</g>
</svg>
